<?xml version="1.0" encoding="utf-8"?>
<!-- Generator: Adobe Illustrator 28.1.0, SVG Export Plug-In . SVG Version: 6.00 Build 0)  -->
<svg version="1.1" id="Layer_1" focusable="false" xmlns="http://www.w3.org/2000/svg" xmlns:xlink="http://www.w3.org/1999/xlink"
	 x="0px" y="0px" viewBox="0 0 48 48" style="enable-background:new 0 0 48 48;" xml:space="preserve">
<g id="XMLID_68_">
	<g id="XMLID_82_">
		<path id="XMLID_83_" d="M39,10H9c-1.7,0-3,1.3-3,3v22c0,1.7,1.3,3,3,3h30c1.7,0,3-1.3,3-3V13C42,11.3,40.7,10,39,10z M39,34
			c0,0.5-0.5,1-1,1H10c-0.6,0-1-0.5-1-1V14c0-0.6,0.4-1,1-1h28c0.5,0,1,0.4,1,1V34z M18,30.8v0.5c0,0.4-0.3,0.8-0.8,0.8h-4.5
			c-0.4,0-0.8-0.3-0.8-0.8v-0.5c0-0.4,0.3-0.8,0.8-0.8h4.5C17.7,30,18,30.3,18,30.8z M30,30.8v0.5c0,0.4-0.3,0.8-0.8,0.8h-8.5
			c-0.4,0-0.8-0.3-0.8-0.8v-0.5c0-0.4,0.3-0.8,0.8-0.8h8.5C29.7,30,30,30.3,30,30.8z"/>
	</g>
	<g id="XMLID_88_">
		<path id="XMLID_89_" d="M19,14.8h1.9l3.4,6v-6H26v8.6h-1.8l-3.5-6.1v6.1H19V14.8z"/>
		<path id="XMLID_91_" d="M29.3,23.5h-1.8v-8.6h1.8V23.5z"/>
		<path id="XMLID_93_" d="M31,14.9h6.2v1.5h-4.4v2h3.8v1.5h-3.8v3.6H31V14.9z"/>
	</g>
</g>
<rect x="6" y="21.2" width="3" height="2.1"/>
</svg>
